<svg width="16" height="18" viewBox="0 0 16 18" fill="none" xmlns="http://www.w3.org/2000/svg">
<path d="M11.714 0C11.7559 0 11.7978 0 11.842 0C11.9448 1.2694 11.4603 2.21789 10.8714 2.90476C10.2936 3.58688 9.50241 4.24845 8.22273 4.14807C8.13737 2.89685 8.62268 2.01871 9.21075 1.33342C9.75613 0.69477 10.756 0.126466 11.714 0Z" fill="black"/>
<path d="M15.5878 13.2125C15.5878 13.2251 15.5878 13.2362 15.5878 13.248C15.2281 14.3372 14.7152 15.2707 14.0892 16.137C13.5177 16.9234 12.8174 17.9818 11.567 17.9818C10.4865 17.9818 9.76877 17.287 8.66141 17.2681C7.49002 17.2491 6.84584 17.849 5.77484 18C5.65232 18 5.52981 18 5.40967 18C4.62321 17.8862 3.98851 17.2633 3.52612 16.7021C2.16266 15.0438 1.10905 12.9018 0.913025 10.1607C0.913025 9.89196 0.913025 9.62401 0.913025 9.35527C0.996018 7.39347 1.94925 5.79843 3.21628 5.02541C3.88497 4.61439 4.80421 4.26424 5.82779 4.42074C6.26647 4.48872 6.71463 4.6389 7.10747 4.78749C7.47975 4.93056 7.9453 5.18428 8.38635 5.17084C8.68512 5.16215 8.98232 5.00644 9.28346 4.89657C10.1656 4.57804 11.0303 4.21287 12.17 4.38438C13.5398 4.59147 14.512 5.20009 15.1127 6.13909C13.954 6.87655 13.0379 7.98786 13.1944 9.88564C13.3335 11.6095 14.3358 12.6181 15.5878 13.2125Z" fill="black"/>
</svg>
