<svg width="24" height="24" viewBox="0 0 24 24" fill="none" xmlns="http://www.w3.org/2000/svg">
<path fill-rule="evenodd" clip-rule="evenodd" d="M14.0671 14.0181L14.3708 13.6985C14.7905 13.2566 15.4448 13.1658 15.9819 13.4749L17.2555 14.208C18.0735 14.6788 18.2537 15.8326 17.6144 16.5056L16.6674 17.5027C16.4266 17.7562 16.1278 17.9415 15.7842 17.9754C14.9894 18.0538 13.3542 18.0115 11.4249 16.8158L14.0671 14.0181ZM10.1271 9.87005L10.3183 9.66874C10.7894 9.17283 10.8338 8.37664 10.4228 7.7954L9.58217 6.60641C9.07352 5.887 8.09064 5.79197 7.50763 6.40576L6.46123 7.50742C6.17215 7.81177 5.97843 8.2063 6.00193 8.64396C6.04507 9.44785 6.30388 10.9164 7.4345 12.7211L10.1271 9.87005Z" fill="#01816A"/>
<path opacity="0.6" d="M11.1592 12.856C9.08656 10.7723 9.83706 10.0048 9.84177 10L7 12.8733C7.46873 13.5877 8.07943 14.3545 8.87409 15.1534C9.67598 15.9595 10.4646 16.558 11.2114 17L14 14.1805C14 14.1805 13.2383 14.9463 11.1592 12.856Z" fill="#01816A"/>
</svg>
