<svg width="24" height="24" viewBox="0 0 24 24" fill="none" xmlns="http://www.w3.org/2000/svg">
<rect width="24" height="24" rx="5" fill="#D8D8D8"/>
<path fill-rule="evenodd" clip-rule="evenodd" d="M5.68349 5.03463C5.41613 4.92309 5.12319 5.08986 5.02919 5.40711C4.93519 5.72437 5.07573 6.07198 5.34309 6.18352L5.52181 6.25808C5.97859 6.44864 6.27879 6.57493 6.49968 6.70354C6.70715 6.82433 6.7986 6.92211 6.85885 7.02673C6.92061 7.13397 6.9683 7.28126 6.99521 7.57626C7.02337 7.88494 7.02407 8.287 7.02407 8.88774L7.02407 11H17.7826C18.0088 9.65427 18.1149 8.97064 17.8183 8.51328C17.5146 8.04475 16.4768 8.04475 15.324 8.04475H8.04527C8.04069 7.82528 8.03201 7.6256 8.01556 7.4452C7.97879 7.0422 7.89914 6.67465 7.70621 6.33963C7.51177 6.002 7.25325 5.78577 6.95177 5.61024C6.66981 5.44607 6.31154 5.29663 5.88971 5.12067L5.68349 5.03463Z" fill="#01816A"/>
<path d="M17.6333 12.7752L17.9829 11.0855L18 11H7C7 13.0499 7.04424 13.7264 7.65034 14.3632C8.25644 15 9.23194 15 11.1829 15H14.8926C15.9847 15 16.5307 15 16.9166 14.6867C17.3026 14.3734 17.4128 13.8407 17.6333 12.7752Z" fill="white"/>
<path d="M9 17C9.55228 17 10 17.4477 10 18C10 18.5522 9.55228 19 9 19C8.44772 19 8 18.5522 8 18C8 17.4477 8.44772 17 9 17Z" fill="#01816A"/>
<path d="M15 17C15.5523 17 16 17.4478 16 18C16 18.5523 15.5523 19 15 19C14.4477 19 14 18.5523 14 18C14 17.4478 14.4477 17 15 17Z" fill="#01816A"/>
</svg>
