<svg width="24" height="24" viewBox="0 0 24 24" fill="none" xmlns="http://www.w3.org/2000/svg">
<path fill-rule="evenodd" clip-rule="evenodd" d="M6.51429 10C6.79832 10 7.02857 10.2239 7.02857 10.5V11.1667C7.02857 13.836 9.25436 16 12 16C14.7456 16 16.9714 13.836 16.9714 11.1667V10.5C16.9714 10.2239 17.2017 10 17.4857 10C17.7697 10 18 10.2239 18 10.5V11.1667C18 14.2199 15.5872 16.7253 12.5143 16.9789V18.5C12.5143 18.7761 12.284 19 12 19C11.716 19 11.4857 18.7761 11.4857 18.5V16.9789C8.41275 16.7253 6 14.2199 6 11.1667V10.5C6 10.2239 6.23025 10 6.51429 10Z" fill="white"/>
<path d="M12 5C9.79086 5 8 6.77542 8 8.96552V11.0345C8 13.2246 9.79086 15 12 15C14.0323 15 15.7106 13.4974 15.9663 11.5517L12.6957 11.5517C12.4075 11.5517 12.1739 11.3201 12.1739 11.0345C12.1739 10.7488 12.4075 10.5172 12.6957 10.5172L16 10.5172V9.48276H12.6957C12.4075 9.48276 12.1739 9.25118 12.1739 8.96552C12.1739 8.67985 12.4075 8.44828 12.6957 8.44828H15.9663C15.7106 6.50258 14.0323 5 12 5Z" fill="white"/>
<path d="M12 10.5C12 10.7761 12.2442 11 12.5455 11L15.9647 11L16 10L12.5455 10C12.2442 10 12 10.2239 12 10.5Z" fill="#01816A"/>
<path d="M12 8.5C12 8.77614 12.2442 9 12.5455 9H16L15.9647 8H12.5455C12.2442 8 12 8.22386 12 8.5Z" fill="#01816A"/>
</svg>
