<?xml version="1.0" ?>
<!-- Uploaded to: SVG Repo, www.svgrepo.com, Generator: SVG Repo Mixer Tools -->
<svg fill="#000000" width="800px" height="800px" viewBox="0 0 100 100" enable-background="new 0 0 100 100" id="Layer_1" version="1.1" xml:space="preserve" xmlns="http://www.w3.org/2000/svg" xmlns:xlink="http://www.w3.org/1999/xlink">
<g>
<path d="M44.28,76.618c0.002,0.001,0.004,0.001,0.005,0.002c0.001,0.001,0.002,0.002,0.003,0.002   c1.31,0.64,2.874,0.962,4.534,0.961c1.529,0,3.14-0.272,4.707-0.819c5.516-1.927,8.916-6.679,7.58-10.592   c-0.008-0.023-0.017-0.046-0.026-0.069c-0.934-2.616-3.814-4.268-7.451-4.341c-1.082-3.414-3.359-5.642-6.099-5.87   c-0.008-0.001-0.015-0.003-0.023-0.004c-0.009-0.001-0.018-0.004-0.028-0.005c-1.571-0.122-3.123,0.445-4.475,1.62   c-2.104,1.828-3.499,4.975-3.732,8.421C38.946,70.845,41.002,75.229,44.28,76.618z M52.886,74.917   c-0.823,0.287-1.652,0.477-2.469,0.591c0.034-0.028,0.07-0.048,0.104-0.077c2.005-1.743,3.353-4.686,3.677-7.964   c2.009-1.309,4.249-0.647,5.157-0.28C59.988,70.017,57.195,73.412,52.886,74.917z M54.257,65.238   c-0.025-0.511-0.071-1.016-0.148-1.511c1.353,0.1,2.525,0.471,3.432,1.043C56.544,64.683,55.405,64.771,54.257,65.238z    M51.964,62.969c0.311,1.223,0.425,2.53,0.336,3.911c-0.197,2.935-1.341,5.579-3.062,7.074c-0.166,0.144-0.338,0.258-0.51,0.375   c0.401-0.748,0.739-1.631,0.844-2.651c0.203-1.988-0.488-3.951-2.054-5.835c-1.213-1.46-1.756-2.931-1.614-4.371   c0.169-1.722,1.273-3.021,1.817-3.566C49.616,58.265,51.258,60.187,51.964,62.969z M41.228,66.056   c0.199-2.937,1.345-5.581,3.064-7.075c0.166-0.144,0.338-0.258,0.509-0.375c-0.401,0.748-0.739,1.63-0.843,2.651   c-0.203,1.988,0.489,3.952,2.054,5.836c1.213,1.46,1.756,2.93,1.615,4.37c-0.179,1.82-1.393,3.158-1.894,3.64   c-0.184-0.069-0.37-0.135-0.542-0.217c-0.021-0.012-0.045-0.017-0.067-0.027c-0.013-0.006-0.024-0.018-0.037-0.023   C42.578,73.806,40.956,70.115,41.228,66.056z"/>
<path d="M50,83.68c9.347,0,16.952-7.604,16.952-16.952c0-9.347-7.604-16.951-16.952-16.951s-16.952,7.604-16.952,16.951   C33.048,76.076,40.653,83.68,50,83.68z M50,51.733c8.268,0,14.995,6.726,14.995,14.995S58.268,81.724,50,81.724   s-14.995-6.727-14.995-14.996S41.732,51.733,50,51.733z"/>
<path d="M74.149,35.187h-1.057c-0.012-0.254-0.027-0.499-0.049-0.733c0-0.003,0.001-0.006,0.001-0.01   c0-0.621-0.077-1.201-0.214-1.705c0-0.001,0-0.002,0-0.002c-0.002-0.01-0.004-0.019-0.006-0.028   c-0.004-0.014-0.005-0.032-0.009-0.046c0-0.001-0.001-0.002-0.001-0.002c-1.61-9.652-9.517-16.783-19.145-17.524V5.978   C53.669,5.438,53.231,5,52.691,5h-5.381c-0.54,0-0.978,0.438-0.978,0.978v9.165c-5.009,0.388-9.67,2.509-13.263,6.102   c-3.738,3.737-5.904,8.703-6.127,13.941h-1.09c-0.54,0-0.978,0.438-0.978,0.978v4.695c0,0.541,0.438,0.978,0.978,0.978h1.122   l4.947,52.275C31.968,94.616,32.39,95,32.894,95h34.211c0.504,0,0.926-0.384,0.974-0.887l4.947-52.275h1.122   c0.54,0,0.978-0.438,0.978-0.978v-4.695C75.127,35.624,74.689,35.187,74.149,35.187z M70.908,33.115   c0.085,0.502,0.148,0.995,0.184,1.479c0.018,0.192,0.032,0.389,0.042,0.592H28.927c0.466-2.573,2.698-4.463,5.356-4.463   c1.206,0,2.355,0.398,3.324,1.152c0.265,0.205,0.615,0.261,0.931,0.149c0.315-0.113,0.551-0.379,0.624-0.706   c0.553-2.455,2.784-4.238,5.304-4.238c1.972,0,3.796,1.076,4.76,2.808c0.14,0.251,0.383,0.428,0.665,0.483   c0.283,0.06,0.575-0.014,0.799-0.194c0.959-0.762,2.119-1.166,3.355-1.166c2.128,0,4.013,1.2,4.921,3.132   c0.161,0.343,0.506,0.562,0.885,0.562c0.379,0,0.724-0.219,0.886-0.563c0.907-1.931,2.792-3.131,4.92-3.131   C68.143,29.012,70.289,30.683,70.908,33.115z M51.712,6.957v8.106h-3.425V6.957H51.712z M34.451,22.629   c3.571-3.571,8.302-5.55,13.34-5.6h4.435c7.548,0.083,14.114,4.479,17.147,11.041c-1.1-0.641-2.368-1.014-3.717-1.014   c-2.282,0-4.42,1.071-5.806,2.825c-1.386-1.754-3.524-2.825-5.806-2.825c-1.3,0-2.579,0.347-3.692,0.991   c-1.39-1.825-3.562-2.922-5.887-2.922c-2.968,0-5.641,1.819-6.792,4.476c-1.045-0.548-2.196-0.833-3.39-0.833   c-1.685,0-3.242,0.56-4.491,1.512C30.71,27.416,32.287,24.793,34.451,22.629z M66.216,93.043H33.784l-4.845-51.205h42.123   L66.216,93.043z M73.171,39.882h-1.034H27.864h-1.034v-2.739h1.034h43.961h0.312h1.034V39.882z"/>
</g>
</svg>