<svg width="24" height="24" viewBox="0 0 24 24" fill="none" xmlns="http://www.w3.org/2000/svg">
<rect width="24" height="24" rx="12" fill="#01816A"/>
<path fill-rule="evenodd" clip-rule="evenodd" d="M13.9317 6.36997C14.1256 5.87668 14.8224 5.87668 15.0163 6.36997L15.2699 7.01543L15.9127 7.26987C16.4041 7.46442 16.4042 8.16127 15.9127 8.35582L15.2699 8.61026L15.0163 9.25571C14.8224 9.74901 14.1256 9.74901 13.9317 9.25571L13.6781 8.61026L13.0353 8.35582C12.5439 8.16127 12.5439 7.46442 13.0353 7.26987L13.6781 7.01543L13.9317 6.36997ZM14.474 6.61031L14.7198 7.23575C14.7788 7.38602 14.8975 7.50534 15.0479 7.56488L15.6743 7.81284L15.0479 8.06081C14.8975 8.12034 14.7788 8.23966 14.7198 8.38993L14.474 9.01538L14.2282 8.38993C14.1692 8.23966 14.0505 8.12034 13.9001 8.06081L13.2737 7.81284L13.9001 7.56488C14.0505 7.50534 14.1692 7.38602 14.2282 7.23575L14.474 6.61031Z" fill="white"/>
<path fill-rule="evenodd" clip-rule="evenodd" d="M6.63064 7.07508C7.4715 6.23423 8.83479 6.23423 9.67565 7.07508L16.925 14.3244C17.7659 15.1652 17.7659 16.5285 16.925 17.3694C16.0842 18.2102 14.7209 18.2102 13.88 17.3694L6.63064 10.1201C5.78979 9.27921 5.78979 7.91593 6.63064 7.07508ZM9.0471 7.70362C8.55338 7.2099 7.75291 7.2099 7.25919 7.70362C6.76547 8.19733 6.76547 8.9978 7.25919 9.49152L8.19921 10.4315L9.98713 8.64364L9.0471 7.70362ZM14.5086 16.7408L8.82776 11.0601L10.6157 9.27218L16.2965 14.9529C16.7902 15.4466 16.7902 16.2471 16.2965 16.7408C15.8028 17.2345 15.0023 17.2345 14.5086 16.7408Z" fill="white"/>
<path fill-rule="evenodd" clip-rule="evenodd" d="M17.3079 10.4128C17.1141 9.9195 16.4172 9.9195 16.2234 10.4128L16.1318 10.6458L15.9 10.7376C15.4085 10.9322 15.4085 11.629 15.9 11.8236L16.1318 11.9154L16.2234 12.1484C16.4172 12.6417 17.1141 12.6417 17.3079 12.1484L17.3995 11.9154L17.6314 11.8236C18.1229 11.629 18.1229 10.9322 17.6314 10.7376L17.3995 10.6458L17.3079 10.4128ZM16.7657 10.6531L16.682 10.8662C16.6229 11.0164 16.5042 11.1358 16.3539 11.1953L16.1383 11.2806L16.3539 11.3659C16.5042 11.4255 16.6229 11.5448 16.682 11.695L16.7657 11.9081L16.8494 11.695C16.9084 11.5448 17.0271 11.4255 17.1775 11.3659L17.393 11.2806L17.1775 11.1953C17.0271 11.1358 16.9084 11.0164 16.8494 10.8662L16.7657 10.6531Z" fill="white"/>
<path fill-rule="evenodd" clip-rule="evenodd" d="M7.43281 14.0737C7.62664 13.5804 8.32351 13.5804 8.51734 14.0737L8.60892 14.3067L8.84079 14.3985C9.33227 14.5931 9.33227 15.2899 8.84079 15.4845L8.60892 15.5762L8.51734 15.8093C8.32351 16.3026 7.62664 16.3026 7.43281 15.8093L7.34123 15.5762L7.10936 15.4845C6.61788 15.2899 6.61788 14.5931 7.10936 14.3985L7.34123 14.3067L7.43281 14.0737ZM7.89136 14.5271L7.97507 14.314L8.05879 14.5271C8.11784 14.6773 8.23651 14.7966 8.3869 14.8562L8.60242 14.9415L8.3869 15.0268C8.23651 15.0863 8.11784 15.2057 8.05879 15.3559L7.97507 15.569L7.89136 15.3559C7.83231 15.2057 7.71364 15.0863 7.56325 15.0268L7.34773 14.9415L7.56325 14.8562C7.71364 14.7966 7.83231 14.6773 7.89136 14.5271Z" fill="white"/>
</svg>
