<svg width="19" height="19" viewBox="0 0 19 19" fill="none" xmlns="http://www.w3.org/2000/svg">
<g clip-path="url(#clip0_2010_584)">
<path d="M8.015 18.2736C3.74 17.5086 0.5 13.8186 0.5 9.36365C0.5 4.41365 4.55 0.363647 9.5 0.363647C14.45 0.363647 18.5 4.41365 18.5 9.36365C18.5 13.8186 15.26 17.5086 10.985 18.2736L10.49 17.8686H8.51L8.015 18.2736Z" fill="url(#paint0_linear_2010_584)"/>
<path d="M13.0101 11.8837L13.4151 9.36366H11.0301V7.60866C11.0301 6.88866 11.3001 6.34866 12.3801 6.34866H13.5501V4.05366C12.9201 3.96366 12.2001 3.87366 11.5701 3.87366C9.50006 3.87366 8.06006 5.13366 8.06006 7.38366V9.36366H5.81006V11.8837H8.06006V18.2287C8.55506 18.3187 9.05006 18.3637 9.54506 18.3637C10.0401 18.3637 10.5351 18.3187 11.0301 18.2287V11.8837H13.0101Z" fill="white"/>
</g>
<defs>
<linearGradient id="paint0_linear_2010_584" x1="9.50045" y1="17.7377" x2="9.50045" y2="0.360332" gradientUnits="userSpaceOnUse">
<stop stop-color="#0062E0"/>
<stop offset="1" stop-color="#19AFFF"/>
</linearGradient>
<clipPath id="clip0_2010_584">
<rect width="18" height="18" fill="white" transform="translate(0.5 0.363647)"/>
</clipPath>
</defs>
</svg>
