<svg width="24" height="24" viewBox="0 0 24 24" fill="none" xmlns="http://www.w3.org/2000/svg">
<rect width="24" height="24" rx="12" fill="white"/>
<path d="M7 11.1588C7 13.0234 9.00971 14.9955 10.4809 16.1893C11.1469 16.7298 11.4799 17 12 17C12.5201 17 12.8531 16.7298 13.5191 16.1893C14.9903 14.9955 17 13.0234 17 11.1587C17 8.04374 14.2499 6.88075 12 9.28706C9.75008 6.88075 7 8.04374 7 11.1588Z" fill="#D9D9D9"/>
<path d="M10.4809 16.1893L10.1658 16.5776L10.4809 16.1893ZM12 9.28706L11.6348 9.62855C11.7293 9.72967 11.8616 9.78706 12 9.78706C12.1384 9.78706 12.2707 9.72967 12.3652 9.62855L12 9.28706ZM13.5191 16.1893L13.8342 16.5776L13.5191 16.1893ZM12 17L12 16.5L12 17ZM10.7959 15.8011C10.0745 15.2157 9.23608 14.451 8.58222 13.6171C7.91873 12.7709 7.5 11.9222 7.5 11.1588H6.5C6.5 12.2599 7.08613 13.3296 7.79528 14.2341C8.51407 15.1508 9.41605 15.9691 10.1658 16.5776L10.7959 15.8011ZM7.5 11.1588C7.5 9.74151 8.11594 8.90096 8.83859 8.61799C9.55893 8.33593 10.6019 8.52389 11.6348 9.62855L12.3652 8.94557C11.1482 7.64392 9.69115 7.21022 8.47397 7.68683C7.2591 8.16253 6.5 9.46098 6.5 11.1588H7.5ZM13.8342 16.5776C14.584 15.9692 15.4859 15.1509 16.2047 14.2341C16.9139 13.3297 17.5 12.2599 17.5 11.1587H16.5C16.5 11.9222 16.0813 12.7709 15.4178 13.6171C14.7639 14.451 13.9255 15.2157 13.2041 15.8011L13.8342 16.5776ZM17.5 11.1587C17.5 9.46097 16.7409 8.16253 15.526 7.68683C14.3089 7.21022 12.8518 7.64392 11.6348 8.94557L12.3652 9.62855C13.3981 8.52389 14.4411 8.33592 15.1614 8.61799C15.8841 8.90095 16.5 9.7415 16.5 11.1587H17.5ZM10.1658 16.5776C10.7914 17.0853 11.2683 17.5 12 17.5L12 16.5C11.6915 16.5 11.5023 16.3743 10.7959 15.8011L10.1658 16.5776ZM13.2041 15.8011C12.4977 16.3743 12.3085 16.5 12 16.5L12 17.5C12.7318 17.5 13.2086 17.0853 13.8342 16.5776L13.2041 15.8011Z" fill="#D8D8D8"/>
</svg>
