<svg width="24" height="24" viewBox="0 0 24 24" fill="none" xmlns="http://www.w3.org/2000/svg">
<rect width="24" height="24" rx="5" fill="#01816A"/>
<path d="M9.90909 13.5C10.9635 13.5 11.8182 14.5074 11.8182 15.75C11.8182 16.9926 10.9635 18 9.90909 18C8.85473 18 8 16.9926 8 15.75C8 14.5074 8.85473 13.5 9.90909 13.5Z" fill="white"/>
<path d="M13.0909 6C12.0365 6 11.1818 7.00736 11.1818 8.25C11.1818 9.49264 12.0365 10.5 13.0909 10.5C14.1453 10.5 15 9.49264 15 8.25C15 7.00736 14.1453 6 13.0909 6Z" fill="white"/>
<g opacity="0.5">
<path d="M15.2785 9.04348C15.3169 8.88544 15.3372 8.72039 15.3372 8.55059C15.3372 8.36001 15.3116 8.17541 15.2636 8H18.4767C18.7657 8 19 8.23359 19 8.52174C19 8.80989 18.7657 9.04348 18.4767 9.04348L15.2785 9.04348Z" fill="white"/>
<path d="M11.2248 8C11.1768 8.17541 11.1512 8.36001 11.1512 8.55059C11.1512 8.72039 11.1715 8.88544 11.2099 9.04348L4.52326 9.04348C4.23427 9.04348 4 8.80989 4 8.52174C4 8.23359 4.23427 8 4.52326 8H11.2248Z" fill="white"/>
<path d="M7.7364 14.9565H4.52326C4.23427 14.9565 4 15.1901 4 15.4783C4 15.7664 4.23427 16 4.52326 16H7.7215C7.68313 15.842 7.66279 15.6769 7.66279 15.5071C7.66279 15.3165 7.68841 15.1319 7.7364 14.9565Z" fill="white"/>
<path d="M11.7901 16H18.4767C18.7657 16 19 15.7664 19 15.4783C19 15.1901 18.7657 14.9565 18.4767 14.9565H11.7752C11.8232 15.1319 11.8488 15.3165 11.8488 15.5071C11.8488 15.6769 11.8285 15.842 11.7901 16Z" fill="white"/>
</g>
</svg>
