<svg width="19" height="19" viewBox="0 0 19 19" fill="none" xmlns="http://www.w3.org/2000/svg">
<path d="M17.3758 9.53858C17.3758 8.89108 17.3222 8.41858 17.2061 7.92859H9.6615V10.8511H14.09C14.0008 11.5773 13.5186 12.6711 12.4472 13.406L12.4322 13.5039L14.8176 15.3149L14.9829 15.3311C16.5007 13.9573 17.3758 11.9361 17.3758 9.53858Z" fill="#4285F4"/>
<path d="M9.66098 17.2387C11.8306 17.2387 13.652 16.5387 14.9824 15.3312L12.4467 13.4061C11.7681 13.8699 10.8574 14.1936 9.66098 14.1936C7.53601 14.1936 5.73246 12.8199 5.08954 10.9211L4.9953 10.929L2.51486 12.8103L2.48242 12.8986C3.80383 15.4711 6.51811 17.2387 9.66098 17.2387Z" fill="#34A853"/>
<path d="M5.08998 10.9211C4.92034 10.4311 4.82216 9.90609 4.82216 9.36362C4.82216 8.82109 4.92034 8.29611 5.08106 7.80611L5.07656 7.70176L2.56503 5.79028L2.48285 5.82859C1.93824 6.8961 1.62573 8.09487 1.62573 9.36362C1.62573 10.6324 1.93824 11.8311 2.48285 12.8986L5.08998 10.9211Z" fill="#FBBC05"/>
<path d="M9.66103 4.53363C11.1699 4.53363 12.1878 5.17237 12.7682 5.70616L15.036 3.53615C13.6432 2.2674 11.8306 1.48865 9.66103 1.48865C6.51814 1.48865 3.80384 3.25613 2.48242 5.82861L5.08063 7.80614C5.73248 5.90739 7.53604 4.53363 9.66103 4.53363Z" fill="#EB4335"/>
</svg>
