<svg width="24" height="24" viewBox="0 0 24 24" fill="none" xmlns="http://www.w3.org/2000/svg">
<rect width="24" height="24" rx="12" fill="white"/>
<path d="M19 12.5C19 16.0899 16.0899 19 12.5 19C8.91015 19 6 16.0899 6 12.5C6 8.91015 8.91015 6 12.5 6C16.0899 6 19 8.91015 19 12.5Z" fill="#01816A"/>
<path d="M12.5 9C11.1193 9 10 10.3431 10 12C10 13.6569 11.1193 15 12.5 15C13.8807 15 15 13.6569 15 12C15 10.3431 13.8807 9 12.5 9Z" fill="white"/>
<path d="M13.093 3.62791C13.093 3.28112 12.8275 3 12.5 3C12.1725 3 11.907 3.28112 11.907 3.62791V5.33137C12.1022 5.31215 12.3 5.30233 12.5 5.30233C12.7 5.30233 12.8978 5.31215 13.093 5.33137V3.62791Z" fill="#01816A"/>
<path d="M18.7982 12.6279C18.8163 12.4212 18.8256 12.2117 18.8256 12C18.8256 11.7883 18.8163 11.5788 18.7982 11.3721H20.407C20.7345 11.3721 21 11.6532 21 12C21 12.3468 20.7345 12.6279 20.407 12.6279H18.7982Z" fill="#01816A"/>
<path d="M11.907 18.6686C12.1022 18.6878 12.3 18.6977 12.5 18.6977C12.7 18.6977 12.8978 18.6878 13.093 18.6686V20.3721C13.093 20.7189 12.8275 21 12.5 21C12.1725 21 11.907 20.7189 11.907 20.3721V18.6686Z" fill="#01816A"/>
<path d="M6.20185 11.3721C6.1837 11.5788 6.17442 11.7883 6.17442 12C6.17442 12.2117 6.1837 12.4212 6.20185 12.6279H4.59302C4.26551 12.6279 4 12.3468 4 12C4 11.6532 4.26551 11.3721 4.59302 11.3721H6.20185Z" fill="#01816A"/>
</svg>
