<svg width="24" height="24" viewBox="0 0 24 24" fill="none" xmlns="http://www.w3.org/2000/svg">
<path d="M12.9744 17.1361L12.644 17.6813C12.3495 18.1672 11.6266 18.1596 11.3423 17.6677L11.0233 17.1158C10.7759 16.6877 10.6522 16.4736 10.4512 16.3539C10.2501 16.2341 9.99551 16.2271 9.48629 16.213C8.73454 16.1922 8.26345 16.1412 7.86968 15.9733C7.13905 15.6617 6.56214 15.0726 6.26584 14.3357C6.04362 13.783 6.05089 13.0853 6.06544 11.6899L6.07168 11.091C6.09212 9.1304 6.10234 8.1501 6.55115 7.43457C6.80228 7.03419 7.14461 6.69893 7.55014 6.45621C8.27488 6.02241 9.25518 6.03263 11.2158 6.05307L13.0126 6.0718C14.9732 6.09224 15.9535 6.10246 16.669 6.55127C17.0694 6.8024 17.4047 7.14472 17.6474 7.55025C18.0812 8.27498 18.071 9.25527 18.0506 11.2159L18.0443 11.8148C18.0298 13.2102 18.0225 13.9078 17.7888 14.4558C17.4772 15.1864 16.8881 15.7633 16.1512 16.0596C15.754 16.2193 15.2819 16.2605 14.5299 16.2656C14.0205 16.269 13.7658 16.2708 13.5623 16.3863C13.3588 16.5018 13.2307 16.7133 12.9744 17.1361Z" fill="#01816A"/>
<path d="M15.0528 11.4841C15.0493 11.8149 14.7784 12.0803 14.4476 12.0768C14.1168 12.0734 13.8514 11.8024 13.8549 11.4716C13.8583 11.1409 14.1293 10.8755 14.4601 10.8789C14.7909 10.8824 15.0562 11.1533 15.0528 11.4841Z" fill="white"/>
<path d="M12.657 11.4592C12.6535 11.7899 12.3826 12.0553 12.0518 12.0519C11.721 12.0484 11.4557 11.7775 11.4591 11.4467C11.4626 11.1159 11.7335 10.8505 12.0643 10.854C12.3951 10.8574 12.6604 11.1284 12.657 11.4592Z" fill="white"/>
<path d="M10.2612 11.4342C10.2578 11.765 9.98682 12.0303 9.65604 12.0269C9.32525 12.0234 9.05989 11.7525 9.06334 11.4217C9.06678 11.0909 9.33774 10.8255 9.66852 10.829C9.99931 10.8324 10.2647 11.1034 10.2612 11.4342Z" fill="white"/>
</svg>
