<svg width="24" height="24" viewBox="0 0 24 24" fill="none" xmlns="http://www.w3.org/2000/svg">
<rect width="24" height="24" rx="5" fill="#D8D8D8"/>
<path d="M16.3744 9.35674V9.89555C16.3744 10.5422 16.5485 11.1743 16.8749 11.7124L17.6747 13.0308C18.4053 14.2351 17.8476 15.872 16.577 16.2528C13.253 17.2491 9.74698 17.2491 6.42304 16.2528C5.15242 15.872 4.59471 14.2351 5.32526 13.0308L6.12508 11.7124C6.45146 11.1743 6.62563 10.5422 6.62563 9.89555V9.35674C6.62563 6.39829 8.80796 4 11.5 4C14.192 4 16.3744 6.39829 16.3744 9.35674Z" fill="white"/>
<path d="M12 6.68182C12 6.30526 11.7761 6 11.5 6C11.2239 6 11 6.30526 11 6.68182V10.3182C11 10.6947 11.2239 11 11.5 11C11.7761 11 12 10.6947 12 10.3182V6.68182Z" fill="#01816A"/>
<path d="M8 18C8.47897 19.7412 9.86492 21 11.5 21C13.1351 21 14.521 19.7412 15 18C12.6855 18.5126 10.3145 18.5126 8 18Z" fill="white"/>
</svg>
