<svg width="24" height="24" viewBox="0 0 24 24" fill="none" xmlns="http://www.w3.org/2000/svg">
<path fill-rule="evenodd" clip-rule="evenodd" d="M12 8.71429C10.4587 8.71429 9.2093 9.96149 9.2093 11.5C9.2093 13.0385 10.4587 14.2857 12 14.2857C13.5413 14.2857 14.7907 13.0385 14.7907 11.5C14.7907 9.96149 13.5413 8.71429 12 8.71429ZM10.3256 11.5C10.3256 10.5769 11.0752 9.82857 12 9.82857C12.9248 9.82857 13.6744 10.5769 13.6744 11.5C13.6744 12.4231 12.9248 13.1714 12 13.1714C11.0752 13.1714 10.3256 12.4231 10.3256 11.5Z" fill="#1C274C"/>
<path fill-rule="evenodd" clip-rule="evenodd" d="M12 5C8.64065 5 6.37789 7.00883 5.06461 8.71196L5.04092 8.74266C4.74392 9.12771 4.47037 9.48234 4.28479 9.90167C4.08606 10.3507 4 10.8401 4 11.5C4 12.1599 4.08606 12.6493 4.28479 13.0983C4.47037 13.5177 4.74392 13.8723 5.04093 14.2573L5.06461 14.288C6.37789 15.9912 8.64065 18 12 18C15.3594 18 17.6221 15.9912 18.9354 14.288L18.9591 14.2574C19.2561 13.8723 19.5296 13.5177 19.7152 13.0983C19.9139 12.6493 20 12.1599 20 11.5C20 10.8401 19.9139 10.3507 19.7152 9.90167C19.5296 9.48233 19.2561 9.1277 18.9591 8.74264L18.9354 8.71196C17.6221 7.00883 15.3594 5 12 5ZM5.94919 9.39162C7.16178 7.81908 9.13515 6.11429 12 6.11429C14.8648 6.11429 16.8382 7.81908 18.0508 9.39162C18.3772 9.8149 18.5684 10.0678 18.6941 10.352C18.8117 10.6175 18.8837 10.9421 18.8837 11.5C18.8837 12.0579 18.8117 12.3825 18.6941 12.6481C18.5684 12.9322 18.3772 13.1851 18.0508 13.6084C16.8382 15.1809 14.8648 16.8857 12 16.8857C9.13515 16.8857 7.16178 15.1809 5.94919 13.6084C5.6228 13.1851 5.43162 12.9322 5.30587 12.6481C5.18834 12.3825 5.11628 12.0579 5.11628 11.5C5.11628 10.9421 5.18834 10.6175 5.30587 10.352C5.43162 10.0678 5.6228 9.8149 5.94919 9.39162Z" fill="#1C274C"/>
<path d="M18.6936 5.72021L5.50756 17.9315" stroke="#1C274C" stroke-width="1.5" stroke-linecap="round"/>
</svg>
