<svg width="25" height="25" viewBox="0 0 25 25" fill="none" xmlns="http://www.w3.org/2000/svg">
<rect x="0.598633" y="24.5911" width="24" height="24" rx="12" transform="rotate(-91.4292 0.598633 24.5911)" fill="white"/>
<path d="M12.584 15.8983C13.3288 15.8789 13.9477 16.494 13.9662 17.2722C13.9848 18.0504 13.3961 18.697 12.6513 18.7164C11.9065 18.7358 11.2877 18.1207 11.2691 17.3425C11.2505 16.5643 11.8392 15.9177 12.584 15.8983Z" fill="black"/>
<path d="M12.3485 6.03516C13.0933 6.01575 13.7121 6.63085 13.7307 7.40903C13.7493 8.18721 13.1606 8.83379 12.4158 8.85321C11.671 8.87263 11.0521 8.25752 11.0336 7.47934C11.015 6.70116 11.6037 6.05458 12.3485 6.03516Z" fill="black"/>
<path d="M12.4663 10.9667C13.2111 10.9473 13.83 11.5624 13.8486 12.3406C13.8672 13.1188 13.2784 13.7654 12.5336 13.7848C11.7888 13.8042 11.17 13.1891 11.1514 12.4109C11.1328 11.6327 11.7215 10.9862 12.4663 10.9667Z" fill="black"/>
</svg>
